<?xml version="1.0" encoding="utf-8" ?>
<svg xmlns="http://www.w3.org/2000/svg" width="1920" height="1772.91" viewBox="0 0 1920 1772.91">
  <path fill="#f5f3fb" d="M2390.59,8317.76c-253.36,55.48-355.61,119.71-506.98,85.69S1605.09,8327.1,1559,8158.08s-250.1-147.55-318.6-451.01c-38.45-170.33,145.77-334.97,254.41-485.65,84.91-117.77,121.35-295.44,302.46-387.52,412.83-209.88,610.1-82.04,610.1-82.04l658.62,818.37S2643.94,8262.29,2390.59,8317.76Z" transform="translate(0 -6640.03)"/>
  <path fill="#f7fbf3" d="M-115.357,7383.42c114.164,47.62,156.7,86.49,230.591,83.41s137.118-12.14,173.03-87.59,129.807-47.99,187.607-184.66c32.442-76.71-40.055-169.71-78.278-249.71-29.877-62.54-31.945-149.07-109.124-207.73C112.55,6603.44,9.2,6646.67,9.2,6646.67l-378.187,328.22S-229.52,7335.8-115.357,7383.42Z" transform="translate(0 -6640.03)"/>
</svg>
